<?xml version="1.0" encoding="UTF-8" standalone="no"?>
<!-- Created with Inkscape (http://www.inkscape.org/) -->

<svg style
   xmlns:dc="http://purl.org/dc/elements/1.1/"
   xmlns:cc="http://creativecommons.org/ns#"
   xmlns:rdf="http://www.w3.org/1999/02/22-rdf-syntax-ns#"
   xmlns:svg="http://www.w3.org/2000/svg"
   xmlns="http://www.w3.org/2000/svg"
   xmlns:sodipodi="http://sodipodi.sourceforge.net/DTD/sodipodi-0.dtd"
   xmlns:inkscape="http://www.inkscape.org/namespaces/inkscape"
   viewBox="0 0 108.46943 130.29723"
   id="svg4189"
   version="1.1"
   inkscape:version="0.91 r13725"
   sodipodi:docname="logo212121.svg">
  <defs
     id="defs4191" />
  <sodipodi:namedview
     id="base"
     pagecolor="#ffffff"
     bordercolor="#666666"
     borderopacity="1.0"
     inkscape:pageopacity="0.0"
     inkscape:pageshadow="2"
     inkscape:zoom="6.6693667"
     inkscape:cx="54.234716"
     inkscape:cy="65.148615"
     inkscape:document-units="px"
     inkscape:current-layer="layer1"
     showgrid="false"
     fit-margin-top="2"
     fit-margin-left="2"
     fit-margin-right="2"
     fit-margin-bottom="2"
     inkscape:window-width="1920"
     inkscape:window-height="1027"
     inkscape:window-x="0"
     inkscape:window-y="0"
     inkscape:window-maximized="1" />
  <metadata
     id="metadata4194">
    <rdf:RDF>
      <cc:Work
         rdf:about="">
        <dc:format>image/svg+xml</dc:format>
        <dc:type
           rdf:resource="http://purl.org/dc/dcmitype/StillImage" />
        <dc:title></dc:title>
      </cc:Work>
    </rdf:RDF>
  </metadata>
  <g
     inkscape:label="Ebene 1"
     inkscape:groupmode="layer"
     id="layer1"
     transform="translate(-234.33671,-512.92787)">
    <g
       transform="matrix(0.74274798,0,0,0.74274798,153.9368,-65.377986)"
       id="g3018">
      <g
         style="fill:#ffffff;stroke:#212121;stroke-linecap:round;stroke-linejoin:round;stroke-opacity:1"
         id="layer1-9"
         transform="matrix(0.41220954,0,0,0.38209811,70.41808,545.67233)">
        <path
           style="stroke:#212121;stroke-width:10;stroke-opacity:1"
           inkscape:connector-curvature="0"
           id="rect3196"
           d="m 174.72,639.58 c -29.2,0 -52.91,13.35 -52.91,29.79 l 0,119.12 c 0,16.44 23.71,29.78 52.91,29.78 29.2,0 52.91,-13.34 52.91,-29.78 l 0,-119.12 -0.04,0 c 0,-16.44 -23.67,-29.79 -52.87,-29.79 z" />
        <path
           style="stroke:#212121;stroke-width:2.9375;stroke-opacity:1"
           inkscape:connector-curvature="0"
           id="path2527"
           d="m 214.8,698.03 a 30.686,17.717 0 1 1 -61.37,0 30.686,17.717 0 1 1 61.37,0 z"
           transform="matrix(1.6639,0,0,1.6225,-131.61,-463.2)" />
      </g>
      <path
         inkscape:connector-curvature="0"
         id="path7367"
         d="m 198.79519,790.20674 -1.30776,4.44516 c -0.82443,0.15856 -1.62415,0.35198 -2.41227,0.5927 l -3.5165,-3.25984 -5.60932,3.01743 1.27882,4.44516 c -0.62298,0.51535 -1.21593,1.06678 -1.77296,1.64337 l -4.79546,-1.18538 -3.25521,5.19957 3.5165,3.25984 c -0.26392,0.74159 -0.49582,1.51387 -0.66845,2.28997 l 0,0.0269 -4.76638,1.1315 0,6.00768 4.76638,1.13151 c 0.17792,0.81057 0.42016,1.59774 0.69755,2.37085 l -3.54581,3.20592 3.25522,5.19957 4.73729,-1.23926 c 0.5812,0.6071 1.20613,1.18434 1.86011,1.72419 l -1.30795,4.4182 5.60932,3.01743 3.45857,-3.2868 c 0.82515,0.25446 1.66368,0.48238 2.5286,0.64657 l 1.24971,4.4182 6.48135,0 1.22052,-4.4182 c 0.86854,-0.16487 1.72928,-0.39068 2.55768,-0.64657 l 3.42949,3.2868 5.63817,-3.01743 -1.33678,-4.4182 c 0.64957,-0.53617 1.28198,-1.09471 1.86002,-1.69725 l 4.76638,1.21232 3.22613,-5.19957 -3.51673,-3.17896 c 0.2755,-0.7643 0.51945,-1.54267 0.69755,-2.34389 l 4.76638,-1.18538 0,-6.00768 -4.76638,-1.18539 c -0.17171,-0.7672 -0.40742,-1.52957 -0.66845,-2.26301 l 3.48765,-3.25984 -3.22613,-5.19957 -4.82454,1.21232 c -0.55791,-0.57871 -1.14846,-1.1262 -1.77277,-1.64337 l 1.30776,-4.47212 -5.63817,-3.01743 -3.48765,3.25984 c -0.78021,-0.2386 -1.59675,-0.40763 -2.41227,-0.56574 l -1.30777,-4.47212 -6.48134,0 z"
         style="fill:#21212f;fill-opacity:0.94117647" />
      <path
         style="fill:#ffffff;stroke:#212121;stroke-opacity:1"
         d="m 199.02942,791.87732 -1.79163,6.23346 -4.93314,-4.57278 -5.24858,2.80679 1.8168,6.24517 -6.73732,-1.67239 -3.02805,4.85348 5.00888,4.61958 -6.81306,1.62558 0,5.61364 6.8761,1.62565 -5.07192,4.60789 3.02805,4.85347 6.83823,-1.78933 -1.91771,6.36211 5.24858,2.80679 4.95839,-4.71313 1.76638,6.38551 6.05603,0 1.75368,-6.38551 4.97101,4.71313 5.24858,-2.80679 -1.91779,-6.33877 6.83831,1.76599 3.02797,-4.85347 -5.02143,-4.53768 6.82561,-1.69579 0,-5.61364 -6.74994,-1.66068 4.94576,-4.58449 -3.02797,-4.85347 -6.72477,1.68409 1.80425,-6.25687 -5.24858,-2.80679 -4.92052,4.58449 -1.80417,-6.24517 -6.05603,0 z"
         id="path7375"
         inkscape:connector-curvature="0" />
      <path
         style="fill:#ffffff"
         d="m 222.80368,814.82012 c 0,10.60836 -9.27719,19.20785 -20.72155,19.20785 -11.44436,0 -20.72154,-8.59949 -20.72154,-19.20785 0,-10.60836 9.27718,-19.20786 20.72154,-19.20786 11.44436,0 20.72155,8.5995 20.72155,19.20786 z"
         id="path7377"
         inkscape:connector-curvature="0" />
      <path
         style="opacity:0.95999995;fill:#212121;stroke:#212121;stroke-width:0.04556541;stroke-opacity:1"
         inkscape:connector-curvature="0"
         id="path7463"
         d="m 202.03587,806.04593 c -5.22755,0 -9.46305,3.92588 -9.46305,8.77178 0,4.84568 4.23527,8.77178 9.46305,8.77178 5.22755,0 9.46304,-3.92588 9.46304,-8.77178 0,-4.84568 -4.23526,-8.77178 -9.46304,-8.77178 z m 0,1.79599 c 4.14871,0 7.52533,3.12997 7.52533,6.97562 0,3.84565 -3.37662,6.94973 -7.52533,6.94973 -4.14871,0 -7.52534,-3.10386 -7.52534,-6.94973 0,-3.84565 3.37663,-6.97562 7.52534,-6.97562 z" />
      <path
				 style="fill:#212121"
         inkscape:connector-curvature="0"
         id="path7369"
         d="m 227.44885,825.96526 -0.95418,3.26155 c -1.30201,0.28613 -2.50367,0.77151 -3.6079,1.40963 l -3.13081,-1.71366 -2.6537,2.45986 1.84859,2.9021 c -0.69836,1.03831 -1.21359,2.17294 -1.52072,3.39977 l -3.51858,0.82918 0,3.48257 3.51858,0.82919 c 0.3057,1.21183 0.83261,2.34432 1.52072,3.37195 l -1.84859,2.9021 2.6537,2.48767 3.13081,-1.71366 c 1.11888,0.64598 2.34626,1.09783 3.66768,1.38199 l 0.89451,3.28915 3.75725,0 0.89451,-3.28915 c 1.29149,-0.27992 2.50967,-0.72801 3.6079,-1.35434 l 3.19059,1.68601 2.6537,-2.48767 -1.84877,-2.9021 c 0.6768,-1.01184 1.18411,-2.12621 1.49098,-3.31675 l 3.54836,-0.88447 0,-3.48257 -3.54836,-0.88447 c -0.30613,-1.19724 -0.81076,-2.29982 -1.49098,-3.31676 l 1.84877,-2.92991 -2.6537,-2.45986 -3.16058,1.68602 c -1.0896,-0.62507 -2.29682,-1.09837 -3.57813,-1.38199 l -0.95418,-3.26155 -3.75724,0 z" />
      <path
         style="fill:#ffffff"
         inkscape:connector-curvature="0"
         id="path7387"
         d="m 240.65813,840.25308 a 11.331605,10.503844 0 0 1 -22.66321,0 11.331605,10.503844 0 1 1 22.66321,0 z" />
      <path
         style="fill:#ffffff"
         d="m 227.54359,853.49221 -3.72752,-13.45999 3.72752,-13.02027 3.49455,0 3.72752,12.91044 -3.72752,13.56982 -3.49455,0 z"
         id="path7391"
         inkscape:connector-curvature="0" />
      <path
         style="fill:#ffffff"
         d="m 215.01154,838.63265 14.52071,-3.45523 14.04634,3.45523 0,3.23928 -13.92785,3.45523 -14.6392,-3.45523 0,-3.23928 z"
         id="path7393"
         inkscape:connector-curvature="0" />
      <path
         style="fill:#ffffff"
         d="m 217.98389,848.46952 7.63169,-11.961 12.5682,-6.76369 2.47106,2.29052 -7.21275,11.57229 -12.98714,7.15202 -2.47106,-2.29051 z"
         id="path7395"
         inkscape:connector-curvature="0" />
      <path
         style="fill:#ffffff"
         d="m 220.43406,829.7452 12.90319,7.07421 7.29671,11.65011 -2.47107,2.29052 -12.48425,-6.68588 -7.71564,-12.03844 2.47106,-2.29052 z"
         id="path7397"
         inkscape:connector-curvature="0" />
      <path
         style="opacity:0.95999995;fill:#212121;stroke:#464646;stroke-width:0.02725613"
         inkscape:connector-curvature="0"
         id="path7465"
         d="m 229.3277,835.0092 c -3.12711,0 -5.6721,2.35908 -5.6721,5.25776 0,2.89868 2.54499,5.23187 5.6721,5.23187 3.12711,0 5.6721,-2.33319 5.6721,-5.23187 0,-2.89868 -2.54499,-5.25776 -5.6721,-5.25776 z m 0,0.93704 c 2.57315,0 4.66136,1.93562 4.66136,4.32085 0,2.38523 -2.08816,4.32085 -4.66136,4.32085 -2.5732,0 -4.66135,-1.93562 -4.66135,-4.32085 0,-2.38523 2.08815,-4.32085 4.66135,-4.32085 z" />
      <g
         id="layer1-8"
         transform="matrix(0.36665068,0,0,0.33986728,180.68367,632.83917)"
         style="fill:#212121">
        <g
           transform="translate(186.14256,207.23292)"
           id="g3805">
          <ellipse
             style="fill:#f7f6eb;fill-opacity:1"
             id="path3799"
             transform="matrix(5.1798175,0,0,5.3182491,-150.92731,578.12777)"
             cx="-24.55953"
             cy="9.7061615"
             rx="15.147494"
             ry="14.706306" />
          <path
             d="m -273.75587,549.83827 c -21.346,-1.0484 -41.82,6.2731 -57.643,20.622 -15.847,14.364 -25.139,34.023 -26.187,55.355 -1.0484,21.347 6.2729,41.822 20.637,57.654 14.341,15.831 33.999,25.124 55.345,26.172 44.072,2.1646 81.658,-31.919 83.822,-75.977 2.1638,-44.059 -31.902,-81.662 -75.974,-83.826 z m 63.224,83.2 c -0.367,7.4689 -1.9616,14.587 -4.5388,21.176 -5.3667,-0.699 -10.663,-1.5857 -15.888,-2.675 5.3602,-13.014 7.1915,-27.28 5.1601,-41.604 -1.9358,-13.625 -7.2419,-25.979 -14.924,-36.319 19.179,12.669 31.398,34.844 30.191,59.422 z m -51.311,-56.044 c -13.148,15.1 -24.369,31.883 -33.274,50.025 -7.5319,-4.3654 -14.783,-9.1679 -21.724,-14.36 5.6622,-10.761 14.151,-19.81 24.825,-26.222 9.4861,-5.7146 19.827,-8.7743 30.173,-9.4427 z m -38.584,61.698 c -5.6789,13.434 -10.13,27.54 -13.179,42.173 -0.469,-0.711 -0.93,-1.4361 -1.3679,-2.1681 -9.2593,-15.39 -11.962,-33.476 -7.6309,-50.881 0.24,-1.0043 0.524,-1.9606 0.81,-2.9625 6.8515,4.9967 13.981,9.6175 21.368,13.838 z m 4.8858,49.065 c -2.1773,0.313 -4.3479,0.489 -6.507,0.589 2.7925,-15.173 7.1526,-29.757 12.921,-43.607 12.415,6.2022 25.456,11.319 39.03,15.225 -0.377,0.516 -0.755,1.0706 -1.1482,1.6014 -10.797,14.359 -26.516,23.649 -44.296,26.191 z m 11.676,-54.654 c 8.9627,-18.392 20.442,-35.3 33.986,-50.365 5.8604,8.3783 9.9015,18.18 11.434,28.974 1.8043,12.725 -0.02,25.378 -5.1312,36.816 -14.053,-3.8073 -27.533,-9.0074 -40.289,-15.425 z m -38.962,-53.168 c 13.305,-12.074 30.505,-18.227 48.445,-17.346 4.0544,0.199 8.0134,0.783 11.836,1.6584 -12.368,0.783 -24.724,4.4237 -36.052,11.24 -11.989,7.2111 -21.663,17.218 -28.364,29.074 -3.11,-2.628 -6.1477,-5.3287 -9.1191,-8.1334 3.4772,-6.0937 7.914,-11.659 13.254,-16.492 z m -22.001,46.507 c 0.3,-6.1046 1.4236,-12.031 3.2826,-17.685 2.947,2.6812 5.9587,5.289 9.0424,7.8318 -0.962,2.6418 -1.7988,5.3587 -2.5008,8.1433 -3.4271,13.782 -3.1273,27.899 0.681,41.204 -7.4934,-11.682 -11.199,-25.356 -10.505,-39.494 z m 65.605,70.49 c 15.132,-5.1088 28.388,-14.634 38.189,-27.698 1.4386,-1.9157 2.7884,-3.8891 4.0418,-5.9209 5.1918,1.1489 10.43,2.1243 15.746,2.9355 -12.33,18.983 -33.903,31.254 -57.977,30.683 z"
             id="path244"
             inkscape:connector-curvature="0" />
        </g>
      </g>
      <text
         sodipodi:linespacing="125%"
         id="text3334"
         y="885.05713"
         x="128.86601"
         style="font-style:italic;font-variant:normal;font-weight:bold;font-stretch:normal;font-size:32px;line-height:125%;font-family:Arial;-inkscape-font-specification:'Arial Bold Italic';text-align:start;letter-spacing:0px;word-spacing:0px;writing-mode:lr-tb;text-anchor:start;fill:#d50303;fill-opacity:1;stroke:none"
         xml:space="preserve"><tspan
           class="accent-primary"
           y="885.05713"
           x="128.86601"
           id="tspan3336"
           sodipodi:role="line">simpl4</tspan></text>
      <g
         transform="translate(134.11781,15.87193)"
         id="g3825"
         style="fill:#212121">
        <rect
           style="fill:#fffcfc;fill-opacity:1"
           id="rect3811"
           width="36.09798"
           height="15.987647"
           x="-453.4494"
           y="926.48938"
           transform="matrix(0.9747718,-0.22320379,0.54136512,0.84078761,0,0)" />
        <rect
           style="fill:#fffcfc;fill-opacity:1"
           id="rect3815"
           width="27.647854"
           height="25.883097"
           x="-36.912827"
           y="73.38446"
           transform="matrix(1.3490752,0,0,1.3490752,114.01806,788.1494)" />
        <rect
           style="fill:#fffcfc;fill-opacity:1"
           id="rect3817"
           width="9.3247585"
           height="20.23671"
           x="93.582947"
           y="872.46899" />
        <rect
           style="fill:#fffcfc;fill-opacity:1"
           id="rect3819"
           width="7.9359646"
           height="14.284737"
           x="59.061508"
           y="910.76007" />
        <g
           transform="matrix(0.54136469,0,0,0.50181863,-153.28789,708.89738)"
           id="layer1-91">
          <g
             transform="matrix(1.9175,0,0,1.9175,-607.19,-179.09)"
             id="g3257">
            <path
               d="m 563.06,260.72 -1.25,0.16 -40.15,4.87 -1.66,0.22 0.38,1.62 c 3.78,16.93 -0.59,34.07 -2.88,51.57 l -0.22,1.84 1.81,-0.16 42,-3 1.25,-0.06 0.16,-1.25 c 2.13,-17.86 6.92,-36.12 0.94,-54.62 l -0.38,-1.19 z m -2.18,3.28 c 4.96,16.72 -1.56,33.17 -3.72,50.47 l -35.63,2.78 c 2.25,-16.14 7.03,-29.55 3.78,-46.19 L 560.88,264 Z"
               id="path3224"
               inkscape:connector-curvature="0"
               style="fill-rule:evenodd" />
            <path
               d="m 531.39,275.61 23.34,-4.6"
               id="path3237"
               inkscape:connector-curvature="0"
               style="fill:none;stroke:#000000;stroke-width:1px" />
            <path
               d="m 532.1,280.91 22.27,-2.83"
               id="path3243"
               inkscape:connector-curvature="0"
               style="fill:none;stroke:#000000;stroke-width:1px" />
            <path
               d="m 531.92,285.86 22.89,-1.95"
               id="path3247"
               inkscape:connector-curvature="0"
               style="fill:none;stroke:#000000;stroke-width:1px" />
            <path
               d="m 530.15,292.84 24.22,-2.12"
               id="path3249"
               inkscape:connector-curvature="0"
               style="fill:none;stroke:#000000;stroke-width:1px" />
            <path
               d="m 529.45,297.53 22.98,-0.8"
               id="path3251"
               inkscape:connector-curvature="0"
               style="fill:none;stroke:#000000;stroke-width:1px" />
            <path
               d="m 528.65,304.24 22.45,-2.56"
               id="path3253"
               inkscape:connector-curvature="0"
               style="fill:none;stroke:#000000;stroke-width:1px" />
            <path
               d="m 527.5,309.37 22.81,-1.77"
               id="path3255"
               inkscape:connector-curvature="0"
               style="fill:none;stroke:#000000;stroke-width:1px" />
          </g>
        </g>
      </g>
    </g>
  </g>
</svg>
